<svg version="1.1" viewBox="0.0 0.0 384.0 384.0" fill="none" stroke="none" stroke-linecap="square" stroke-miterlimit="10" xmlns:xlink="http://www.w3.org/1999/xlink" xmlns="http://www.w3.org/2000/svg"><clipPath id="g1128c427a3a_0_41.0"><path d="m0 0l384.0 0l0 384.0l-384.0 0l0 -384.0z" clip-rule="nonzero"/></clipPath><g clip-path="url(#g1128c427a3a_0_41.0)"><path fill="#000000" fill-opacity="0.0" d="m0 0l384.0 0l0 384.0l-384.0 0z" fill-rule="evenodd"/><path fill="#e6e6ff" d="m41.881332 67.2408l0 0c0 -3.0528488 2.474823 -5.527668 5.527672 -5.527668l41.102142 0c1.4660263 0 2.8720093 0.5823784 3.9086533 1.6190186c1.0366364 1.0366402 1.6190109 2.4426231 1.6190109 3.9086494l0 22.110016c0 3.0528488 -2.4748154 5.527672 -5.527664 5.527672l-41.102142 0c-3.0528488 0 -5.527672 -2.474823 -5.527672 -5.527672z" fill-rule="evenodd"/><path stroke="#000000" stroke-width="8.0" stroke-linejoin="round" stroke-linecap="butt" d="m41.881332 67.2408l0 0c0 -3.0528488 2.474823 -5.527668 5.527672 -5.527668l41.102142 0c1.4660263 0 2.8720093 0.5823784 3.9086533 1.6190186c1.0366364 1.0366402 1.6190109 2.4426231 1.6190109 3.9086494l0 22.110016c0 3.0528488 -2.4748154 5.527672 -5.527664 5.527672l-41.102142 0c-3.0528488 0 -5.527672 -2.474823 -5.527672 -5.527672z" fill-rule="evenodd"/><path fill="#d5e3ff" d="m139.08142 56.320362l0 0c0 -6.0680046 4.9190826 -10.987095 10.987091 -10.987095l83.852585 0c2.9139557 0 5.708557 1.1575623 7.769043 3.2180443c2.0604858 2.060482 3.218048 4.855091 3.218048 7.7690506l0 43.947063c0 6.0680084 -4.919098 10.987099 -10.987091 10.987099l-83.852585 0c-6.0680084 0 -10.987091 -4.9190903 -10.987091 -10.987099z" fill-rule="evenodd"/><path stroke="#000000" stroke-width="8.0" stroke-linejoin="round" stroke-linecap="butt" d="m139.08142 56.320362l0 0c0 -6.0680046 4.9190826 -10.987095 10.987091 -10.987095l83.852585 0c2.9139557 0 5.708557 1.1575623 7.769043 3.2180443c2.0604858 2.060482 3.218048 4.855091 3.218048 7.7690506l0 43.947063c0 6.0680084 -4.919098 10.987099 -10.987091 10.987099l-83.852585 0c-6.0680084 0 -10.987091 -4.9190903 -10.987091 -10.987099z" fill-rule="evenodd"/><path fill="#d5e3ff" d="m2.6141732 125.93762l0 0c0 -23.49794 19.048843 -42.546783 42.546783 -42.546783l293.6781 0c11.284088 0 22.106049 4.4825974 30.085114 12.461662c7.979065 7.9790726 12.46167 18.80101 12.46167 30.085121l0 170.18204c0 23.497925 -19.048859 42.546783 -42.546783 42.546783l-293.6781 0c-23.49794 0 -42.546783 -19.048859 -42.546783 -42.546783z" fill-rule="evenodd"/><path stroke="#000000" stroke-width="8.0" stroke-linejoin="round" stroke-linecap="butt" d="m2.6141732 125.93762l0 0c0 -23.49794 19.048843 -42.546783 42.546783 -42.546783l293.6781 0c11.284088 0 22.106049 4.4825974 30.085114 12.461662c7.979065 7.9790726 12.46167 18.80101 12.46167 30.085121l0 170.18204c0 23.497925 -19.048859 42.546783 -42.546783 42.546783l-293.6781 0c-23.49794 0 -42.546783 -19.048859 -42.546783 -42.546783z" fill-rule="evenodd"/><path fill="#ffffff" d="m115.77596 211.01123l0 0c0 -42.086716 34.11802 -76.20473 76.20472 -76.20473l0 0c20.210754 0 39.59372 8.028687 53.884888 22.31984c14.291138 14.291168 22.319855 33.674133 22.319855 53.884888l0 0c0 42.0867 -34.118027 76.20471 -76.20474 76.20471l0 0c-42.0867 0 -76.20472 -34.11801 -76.20472 -76.20471z" fill-rule="evenodd"/><path stroke="#000000" stroke-width="8.0" stroke-linejoin="round" stroke-linecap="butt" d="m115.77596 211.01123l0 0c0 -42.086716 34.11802 -76.20473 76.20472 -76.20473l0 0c20.210754 0 39.59372 8.028687 53.884888 22.31984c14.291138 14.291168 22.319855 33.674133 22.319855 53.884888l0 0c0 42.0867 -34.118027 76.20471 -76.20474 76.20471l0 0c-42.0867 0 -76.20472 -34.11801 -76.20472 -76.20471z" fill-rule="evenodd"/><path fill="#f0fbff" d="m132.58391 211.01591l0 0c0 -32.80658 26.594986 -59.401566 59.401566 -59.401566l0 0c15.754288 0 30.863297 6.258362 42.003265 17.398315c11.139954 11.139954 17.398315 26.248978 17.398315 42.00325l0 0c0 32.80658 -26.595001 59.401566 -59.40158 59.401566l0 0c-32.80658 0 -59.401566 -26.594986 -59.401566 -59.401566z" fill-rule="evenodd"/><path stroke="#000000" stroke-width="8.0" stroke-linejoin="round" stroke-linecap="butt" d="m132.58391 211.01591l0 0c0 -32.80658 26.594986 -59.401566 59.401566 -59.401566l0 0c15.754288 0 30.863297 6.258362 42.003265 17.398315c11.139954 11.139954 17.398315 26.248978 17.398315 42.00325l0 0c0 32.80658 -26.595001 59.401566 -59.40158 59.401566l0 0c-32.80658 0 -59.401566 -26.594986 -59.401566 -59.401566z" fill-rule="evenodd"/><path fill="#000000" fill-opacity="0.0" d="m298.74387 180.85623l0 96.53543" fill-rule="evenodd"/><path stroke="#000000" stroke-width="8.0" stroke-linejoin="round" stroke-linecap="butt" d="m298.74387 180.85623l0 96.53543" fill-rule="evenodd"/><path fill="#ffffff" d="m279.71823 154.39934l0 0c0 -14.611618 8.517151 -26.456688 19.02362 -26.456688l0 0c5.0453796 0 9.884094 2.7873917 13.451721 7.7489853c3.567627 4.9615936 5.5718994 11.6909485 5.5718994 18.707703l0 0c0 14.611633 -8.517181 26.456696 -19.02362 26.456696l0 0c-10.50647 0 -19.02362 -11.845062 -19.02362 -26.456696z" fill-rule="evenodd"/><path stroke="#000000" stroke-width="8.0" stroke-linejoin="round" stroke-linecap="butt" d="m279.71823 154.39934l0 0c0 -14.611618 8.517151 -26.456688 19.02362 -26.456688l0 0c5.0453796 0 9.884094 2.7873917 13.451721 7.7489853c3.567627 4.9615936 5.5718994 11.6909485 5.5718994 18.707703l0 0c0 14.611633 -8.517181 26.456696 -19.02362 26.456696l0 0c-10.50647 0 -19.02362 -11.845062 -19.02362 -26.456696z" fill-rule="evenodd"/><path fill="#d5e3ff" d="m40.911896 95.5258l0 0c0 -4.400978 3.5676918 -7.968666 7.9686623 -7.968666l72.755585 0c2.1134186 0 4.1402817 0.83955383 5.634697 2.333969c1.4944153 1.4944153 2.333969 3.5212708 2.333969 5.634697l0 31.873695c0 4.400963 -3.5676956 7.968666 -7.968666 7.968666l-72.755585 0c-4.4009705 0 -7.9686623 -3.5677032 -7.9686623 -7.968666z" fill-rule="evenodd"/><path fill="#000000" fill-opacity="0.0" d="m87.54205 134.8065l0 152.40944" fill-rule="evenodd"/><path stroke="#000000" stroke-width="8.0" stroke-linejoin="round" stroke-linecap="butt" d="m87.54205 134.8065l0 152.40944" fill-rule="evenodd"/><path fill="#000000" fill-opacity="0.0" d="m70.94725 134.8065c0.13609314 4.927902 -0.7487793 22.593826 0.8165283 29.567398c1.5653076 6.9735565 4.5598297 10.088806 8.57531 12.273956c4.01548 2.185135 11.63829 2.603592 15.517563 0.8368988c3.8792725 -1.7666931 6.4309464 -4.324005 7.758072 -11.4370575c1.3271179 -7.113037 0.17055511 -26.034332 0.20466614 -31.241196" fill-rule="evenodd"/><path stroke="#000000" stroke-width="8.0" stroke-linejoin="round" stroke-linecap="butt" d="m70.94725 134.8065c0.13609314 4.927902 -0.7487793 22.593826 0.8165283 29.567398c1.5653076 6.9735565 4.5598297 10.088806 8.57531 12.273956c4.01548 2.185135 11.63829 2.603592 15.517563 0.8368988c3.8792725 -1.7666931 6.4309464 -4.324005 7.758072 -11.4370575c1.3271179 -7.113037 0.17055511 -26.034332 0.20466614 -31.241196" fill-rule="evenodd"/></g></svg>