<svg version="1.1" viewBox="0.0 0.0 384.0 384.0" fill="none" stroke="none" stroke-linecap="square" stroke-miterlimit="10" xmlns:xlink="http://www.w3.org/1999/xlink" xmlns="http://www.w3.org/2000/svg"><clipPath id="g1128c427a3a_0_41.0"><path d="m0 0l384.0 0l0 384.0l-384.0 0l0 -384.0z" clip-rule="nonzero"/></clipPath><g clip-path="url(#g1128c427a3a_0_41.0)"><path fill="#000000" fill-opacity="0.0" d="m0 0l384.0 0l0 384.0l-384.0 0z" fill-rule="evenodd"/><path fill="#e6e6ff" d="m70.480316 91.00534l0 0c0 -2.4701157 2.0024185 -4.472534 4.4725266 -4.472534l33.29116 0c1.1861877 0 2.3237991 0.4712143 3.1625595 1.3099747c0.8387604 0.8387604 1.3099747 1.9763718 1.3099747 3.1625595l0 17.88958c0 2.4701157 -2.0024185 4.472534 -4.472534 4.472534l-33.29116 0c-2.470108 0 -4.4725266 -2.0024185 -4.4725266 -4.472534z" fill-rule="evenodd"/><path stroke="#000000" stroke-width="8.0" stroke-linejoin="round" stroke-linecap="butt" d="m70.480316 91.00534l0 0c0 -2.4701157 2.0024185 -4.472534 4.4725266 -4.472534l33.29116 0c1.1861877 0 2.3237991 0.4712143 3.1625595 1.3099747c0.8387604 0.8387604 1.3099747 1.9763718 1.3099747 3.1625595l0 17.88958c0 2.4701157 -2.0024185 4.472534 -4.472534 4.472534l-33.29116 0c-2.470108 0 -4.4725266 -2.0024185 -4.4725266 -4.472534z" fill-rule="evenodd"/><path fill="#d5e3ff" d="m149.16536 82.165535l0 0c0 -4.911232 3.9813385 -8.8925705 8.892563 -8.8925705l67.884155 0c2.3584595 0 4.6203156 0.9368973 6.2879944 2.604576c1.6676788 1.6676788 2.6045685 3.929535 2.6045685 6.2879944l0 35.5692c0 4.9112244 -3.9813385 8.892563 -8.892563 8.892563l-67.884155 0c-4.9112244 0 -8.892563 -3.9813385 -8.892563 -8.892563z" fill-rule="evenodd"/><path stroke="#000000" stroke-width="8.0" stroke-linejoin="round" stroke-linecap="butt" d="m149.16536 82.165535l0 0c0 -4.911232 3.9813385 -8.8925705 8.892563 -8.8925705l67.884155 0c2.3584595 0 4.6203156 0.9368973 6.2879944 2.604576c1.6676788 1.6676788 2.6045685 3.929535 2.6045685 6.2879944l0 35.5692c0 4.9112244 -3.9813385 8.892563 -8.892563 8.892563l-67.884155 0c-4.9112244 0 -8.892563 -3.9813385 -8.892563 -8.892563z" fill-rule="evenodd"/><path fill="#d5e3ff" d="m38.692913 138.523l0 0c0 -19.021584 15.420044 -34.441628 34.44163 -34.441628l237.7309 0c9.134491 0 17.894867 3.628662 24.353912 10.087715c6.459076 6.4590607 10.087738 15.219421 10.087738 24.353912l0 137.7624c0 19.021576 -15.420044 34.44162 -34.44165 34.44162l-237.7309 0c-19.021587 0 -34.44163 -15.420044 -34.44163 -34.44162z" fill-rule="evenodd"/><path stroke="#000000" stroke-width="8.0" stroke-linejoin="round" stroke-linecap="butt" d="m38.692913 138.523l0 0c0 -19.021584 15.420044 -34.441628 34.44163 -34.441628l237.7309 0c9.134491 0 17.894867 3.628662 24.353912 10.087715c6.459076 6.4590607 10.087738 15.219421 10.087738 24.353912l0 137.7624c0 19.021576 -15.420044 34.44162 -34.44165 34.44162l-237.7309 0c-19.021587 0 -34.44163 -15.420044 -34.44163 -34.44162z" fill-rule="evenodd"/><path fill="#ffffff" d="m130.29921 207.4042l0 0c0 -34.076416 27.62439 -61.70079 61.70079 -61.70079l0 0c16.36406 0 32.057907 6.500595 43.629044 18.071747c11.571136 11.571136 18.071747 27.264969 18.071747 43.629044l0 0c0 34.0764 -27.62439 61.700775 -61.70079 61.700775l0 0c-34.0764 0 -61.70079 -27.624374 -61.70079 -61.700775z" fill-rule="evenodd"/><path stroke="#000000" stroke-width="8.0" stroke-linejoin="round" stroke-linecap="butt" d="m130.29921 207.4042l0 0c0 -34.076416 27.62439 -61.70079 61.70079 -61.70079l0 0c16.36406 0 32.057907 6.500595 43.629044 18.071747c11.571136 11.571136 18.071747 27.264969 18.071747 43.629044l0 0c0 34.0764 -27.62439 61.700775 -61.70079 61.700775l0 0c-34.0764 0 -61.70079 -27.624374 -61.70079 -61.700775z" fill-rule="evenodd"/><path fill="#f0fbff" d="m143.90552 207.4042l0 0c0 -26.56186 21.532623 -48.094498 48.094482 -48.094498l0 0c12.755447 0 24.98848 5.067093 34.007935 14.086548c9.01947 9.01947 14.086548 21.252487 14.086548 34.00795l0 0c0 26.561844 -21.532623 48.094482 -48.094482 48.094482l0 0c-26.56186 0 -48.094482 -21.532639 -48.094482 -48.094482z" fill-rule="evenodd"/><path stroke="#000000" stroke-width="8.0" stroke-linejoin="round" stroke-linecap="butt" d="m143.90552 207.4042l0 0c0 -26.56186 21.532623 -48.094498 48.094482 -48.094498l0 0c12.755447 0 24.98848 5.067093 34.007935 14.086548c9.01947 9.01947 14.086548 21.252487 14.086548 34.00795l0 0c0 26.561844 -21.532623 48.094482 -48.094482 48.094482l0 0c-26.56186 0 -48.094482 -21.532639 -48.094482 -48.094482z" fill-rule="evenodd"/><path fill="#000000" fill-opacity="0.0" d="m278.4147 182.98163l0 78.14172" fill-rule="evenodd"/><path stroke="#000000" stroke-width="8.0" stroke-linejoin="round" stroke-linecap="butt" d="m278.4147 182.98163l0 78.14172" fill-rule="evenodd"/><path fill="#ffffff" d="m263.01312 161.5643l0 0c0 -11.828461 6.895508 -21.417313 15.401581 -21.417313l0 0c4.0847473 0 8.002197 2.2564545 10.890564 6.2729797c2.8883362 4.0165253 4.511017 9.464111 4.511017 15.144333l0 0c0 11.828461 -6.8955383 21.417328 -15.401581 21.417328l0 0c-8.506073 0 -15.401581 -9.588867 -15.401581 -21.417328z" fill-rule="evenodd"/><path stroke="#000000" stroke-width="8.0" stroke-linejoin="round" stroke-linecap="butt" d="m263.01312 161.5643l0 0c0 -11.828461 6.895508 -21.417313 15.401581 -21.417313l0 0c4.0847473 0 8.002197 2.2564545 10.890564 6.2729797c2.8883362 4.0165253 4.511017 9.464111 4.511017 15.144333l0 0c0 11.828461 -6.8955383 21.417328 -15.401581 21.417328l0 0c-8.506073 0 -15.401581 -9.588867 -15.401581 -21.417328z" fill-rule="evenodd"/><path fill="#d5e3ff" d="m69.69554 113.90564l0 0c0 -3.5631027 2.888466 -6.4515686 6.4515686 -6.4515686l58.87639 0c1.7110596 0 3.3520355 0.679718 4.5619507 1.8896179c1.2098999 1.2099075 1.8896179 2.850891 1.8896179 4.5619507l0 25.805511c0 3.5631104 -2.8884735 6.451584 -6.4515686 6.451584l-58.87639 0c-3.5631027 0 -6.4515686 -2.8884735 -6.4515686 -6.451584z" fill-rule="evenodd"/><path fill="#000000" fill-opacity="0.0" d="m107.443405 145.70341l0 123.401566" fill-rule="evenodd"/><path stroke="#000000" stroke-width="8.0" stroke-linejoin="round" stroke-linecap="butt" d="m107.443405 145.70341l0 123.401566" fill-rule="evenodd"/><path fill="#000000" fill-opacity="0.0" d="m94.00963 145.70341c0.11013794 3.9893188 -0.6060257 18.290543 0.6608505 23.935883c1.2668762 5.645355 3.6904907 8.167267 6.9404144 9.936218c3.2499237 1.7689514 9.419434 2.1077118 12.55912 0.6775055c3.139679 -1.430191 5.204872 -3.5004425 6.2789764 -9.258713c1.0741119 -5.7582703 0.13803864 -21.075745 0.16564941 -25.290894" fill-rule="evenodd"/><path stroke="#000000" stroke-width="8.0" stroke-linejoin="round" stroke-linecap="butt" d="m94.00963 145.70341c0.11013794 3.9893188 -0.6060257 18.290543 0.6608505 23.935883c1.2668762 5.645355 3.6904907 8.167267 6.9404144 9.936218c3.2499237 1.7689514 9.419434 2.1077118 12.55912 0.6775055c3.139679 -1.430191 5.204872 -3.5004425 6.2789764 -9.258713c1.0741119 -5.7582703 0.13803864 -21.075745 0.16564941 -25.290894" fill-rule="evenodd"/></g></svg>